<?xml version="1.0" encoding="UTF-8" standalone="no"?>
<!-- Created with Inkscape (http://www.inkscape.org/) -->

<svg
   width="48.735802mm"
   height="18.60841mm"
   viewBox="0 0 48.735802 18.60841"
   version="1.1"
   id="svg5"
   inkscape:version="1.2.1 (9c6d41e, 2022-07-14)"
   sodipodi:docname="freudlogo.svg"
   xmlns:inkscape="http://www.inkscape.org/namespaces/inkscape"
   xmlns:sodipodi="http://sodipodi.sourceforge.net/DTD/sodipodi-0.dtd"
   xmlns:xlink="http://www.w3.org/1999/xlink"
   xmlns="http://www.w3.org/2000/svg"
   xmlns:svg="http://www.w3.org/2000/svg">
  <sodipodi:namedview
     id="namedview7"
     pagecolor="#ffffff"
     bordercolor="#000000"
     borderopacity="0.25"
     inkscape:showpageshadow="2"
     inkscape:pageopacity="0.0"
     inkscape:pagecheckerboard="0"
     inkscape:deskcolor="#d1d1d1"
     inkscape:document-units="mm"
     showgrid="false"
     inkscape:zoom="1.7642097"
     inkscape:cx="41.661714"
     inkscape:cy="13.320412"
     inkscape:window-width="1512"
     inkscape:window-height="785"
     inkscape:window-x="0"
     inkscape:window-y="38"
     inkscape:window-maximized="0"
     inkscape:current-layer="layer3" />
  <defs
     id="defs2">
    <inkscape:path-effect
       effect="powerclip"
       id="path-effect44107"
       is_visible="true"
       lpeversion="1"
       inverse="true"
       flatten="false"
       hide_clip="false"
       message="Use fill-rule evenodd on &lt;b&gt;fill and stroke&lt;/b&gt; dialog if no flatten result after convert clip to paths." />
    <inkscape:path-effect
       effect="powerclip"
       id="path-effect43979"
       is_visible="true"
       lpeversion="1"
       inverse="true"
       flatten="false"
       hide_clip="false"
       message="Use fill-rule evenodd on &lt;b&gt;fill and stroke&lt;/b&gt; dialog if no flatten result after convert clip to paths." />
    <inkscape:path-effect
       effect="powerclip"
       id="path-effect43957"
       is_visible="true"
       lpeversion="1"
       inverse="true"
       flatten="false"
       hide_clip="false"
       message="Use fill-rule evenodd on &lt;b&gt;fill and stroke&lt;/b&gt; dialog if no flatten result after convert clip to paths." />
    <inkscape:perspective
       sodipodi:type="inkscape:persp3d"
       inkscape:vp_x="0 : 148.5 : 1"
       inkscape:vp_y="0 : 1000 : 0"
       inkscape:vp_z="210.00001 : 148.5 : 1"
       inkscape:persp3d-origin="105.00001 : 99 : 1"
       id="perspective16820" />
    <clipPath
       clipPathUnits="userSpaceOnUse"
       id="clipPath43902">
      <g
         id="g43906">
        <g
           inkscape:label="Clip"
           id="use43904"
           clip-path="url(#clipPath43902)">
          <rect
             style="display:inline;fill:#000000;fill-opacity:1;stroke:#000000;stroke-width:0.336616;stroke-linecap:square;stroke-dasharray:none;stroke-opacity:1"
             id="rect43908"
             width="37.970425"
             height="6.0692573"
             x="82.015442"
             y="25.718832"
             ry="3.0346286"
             inkscape:label="body" />
          <rect
             style="display:inline;fill:#ffffff;fill-opacity:1;stroke-width:0.0150709;stroke-linecap:square"
             id="rect43910"
             width="3.4575562"
             height="5.1028247"
             x="108.86019"
             y="26.242514"
             ry="0"
             inkscape:label="label" />
          <rect
             style="display:inline;fill:#ffffff;fill-opacity:1;stroke-width:0.00631069;stroke-linecap:square"
             id="rect43912"
             width="0.56411374"
             height="5.4838881"
             x="89.314796"
             y="25.982775"
             ry="0"
             inkscape:label="label" />
          <rect
             style="display:inline;fill:#ffffff;fill-opacity:1;stroke-width:0.0221218;stroke-linecap:square"
             id="rect43914"
             width="5.1784878"
             height="7.3407845"
             x="80.637161"
             y="25.085749"
             ry="0"
             inkscape:label="head" />
        </g>
      </g>
    </clipPath>
    <clipPath
       clipPathUnits="userSpaceOnUse"
       id="clipPath43947">
      <g
         id="g43955"
         style="display:none">
        <rect
           style="display:inline;fill:#ffffff;fill-opacity:1;stroke-width:0.0150709;stroke-linecap:square"
           id="rect43949"
           width="3.4575562"
           height="5.1028247"
           x="108.86019"
           y="26.242514"
           ry="0"
           inkscape:label="label"
           d="m 108.86019,26.242514 h 3.45756 v 5.102824 h -3.45756 z" />
        <rect
           style="display:inline;fill:#ffffff;fill-opacity:1;stroke-width:0.00631069;stroke-linecap:square"
           id="rect43951"
           width="0.56411374"
           height="5.4838881"
           x="89.314796"
           y="25.982775"
           ry="0"
           inkscape:label="label"
           d="m 89.314796,25.982775 h 0.564114 v 5.483888 h -0.564114 z" />
        <rect
           style="display:inline;fill:#ffffff;fill-opacity:1;stroke-width:0.0221218;stroke-linecap:square"
           id="rect43953"
           width="5.1784878"
           height="7.3407845"
           x="80.637161"
           y="25.085749"
           ry="0"
           inkscape:label="head"
           d="m 80.637161,25.085749 h 5.178488 v 7.340784 h -5.178488 z" />
      </g>
      <path
         id="lpe_path-effect43957"
         class="powerclip"
         d="M 76.847134,20.550524 H 125.15417 V 36.956397 H 76.847134 Z m 32.013056,5.69199 v 5.102824 h 3.45756 V 26.242514 Z M 89.314796,25.982775 v 5.483888 h 0.564114 v -5.483888 z m -8.677635,-0.897026 v 7.340784 h 5.178488 v -7.340784 z" />
    </clipPath>
    <clipPath
       clipPathUnits="userSpaceOnUse"
       id="clipPath44029">
      <use
         x="0"
         y="0"
         xlink:href="#g44025"
         id="use44031" />
    </clipPath>
    <filter
       id="mask-powermask-path-effect44087_inverse"
       inkscape:label="filtermask-powermask-path-effect44087"
       style="color-interpolation-filters:sRGB"
       height="100"
       width="100"
       x="-50"
       y="-50">
      <feColorMatrix
         id="mask-powermask-path-effect44087_primitive1"
         values="1"
         type="saturate"
         result="fbSourceGraphic" />
      <feColorMatrix
         id="mask-powermask-path-effect44087_primitive2"
         values="-1 0 0 0 1 0 -1 0 0 1 0 0 -1 0 1 0 0 0 1 0 "
         in="fbSourceGraphic" />
    </filter>
    <filter
       id="mask-powermask-path-effect44097_inverse"
       inkscape:label="filtermask-powermask-path-effect44097"
       style="color-interpolation-filters:sRGB"
       height="100"
       width="100"
       x="-50"
       y="-50">
      <feColorMatrix
         id="mask-powermask-path-effect44097_primitive1"
         values="1"
         type="saturate"
         result="fbSourceGraphic" />
      <feColorMatrix
         id="mask-powermask-path-effect44097_primitive2"
         values="-1 0 0 0 1 0 -1 0 0 1 0 0 -1 0 1 0 0 0 1 0 "
         in="fbSourceGraphic" />
    </filter>
    <clipPath
       clipPathUnits="userSpaceOnUse"
       id="clipPath44103">
      <rect
         style="display:none;fill:#ffffff;fill-opacity:1;stroke:#000000;stroke-width:0;stroke-linecap:round;stroke-linejoin:round;stroke-dasharray:none;stroke-opacity:1"
         id="rect44105"
         width="2.6345391"
         height="10.409059"
         x="69.921227"
         y="16.539742"
         inkscape:label="f_bar" />
      <path
         id="lpe_path-effect44107"
         style="display:inline;fill:#ffffff;fill-opacity:1;stroke:#000000;stroke-width:0;stroke-linecap:round;stroke-linejoin:round;stroke-dasharray:none;stroke-opacity:1"
         class="powerclip"
         d="M 65.441413,9.8184135 H 118.84375 V 29.364033 H 65.441413 Z m 4.479814,6.7213285 V 26.9488 h 2.634539 V 16.539742 Z" />
    </clipPath>
  </defs>
  <g
     inkscape:groupmode="layer"
     id="layer3"
     inkscape:label="cigar"
     transform="matrix(0.67217959,0,0,0.48463104,-44.143086,85.836291)"
     style="display:inline">
    <g
       aria-label="FREUD"
       transform="matrix(1.5953916,0,0,1.9241377,-43.449669,-205.62945)"
       id="text22036-9"
       style="font-size:12.8954px;font-family:'Arial Rounded MT Bold';-inkscape-font-specification:'Arial Rounded MT Bold, ';display:inline;stroke:#000000;stroke-width:0;stroke-linecap:square"
       inkscape:label="reud"
       clip-path="url(#clipPath44103)"
       inkscape:path-effect="#path-effect44107">
      <path
         d="m 75.995,16.417745 h -3.683501 v 2.361219 h 3.079029 q 0.428167,0 0.635955,0.195194 0.214083,0.188897 0.214083,0.510023 0,0.321125 -0.214083,0.510023 -0.214084,0.188897 -0.635955,0.188897 h -3.079029 v 3.04125 q 0,0.579285 -0.264456,0.862631 -0.25816,0.27705 -0.667438,0.27705 -0.415574,0 -0.680031,-0.283346 -0.25816,-0.283346 -0.25816,-0.856335 v -7.102545 q 0,-0.402981 0.119635,-0.654845 0.119635,-0.258159 0.371499,-0.371498 0.25816,-0.119635 0.654844,-0.119635 H 75.995 q 0.447057,0 0.661141,0.201491 0.22038,0.195194 0.22038,0.516319 0,0.327423 -0.22038,0.528913 -0.214084,0.195194 -0.661141,0.195194 z"
         id="path44072"
         inkscape:original-d="m 75.995,16.417745 h -3.683501 v 2.361219 h 3.079029 q 0.428167,0 0.635955,0.195194 0.214083,0.188897 0.214083,0.510023 0,0.321125 -0.214083,0.510023 -0.214084,0.188897 -0.635955,0.188897 h -3.079029 v 3.04125 q 0,0.579285 -0.264456,0.862631 -0.25816,0.27705 -0.667438,0.27705 -0.415574,0 -0.680031,-0.283346 -0.25816,-0.283346 -0.25816,-0.856335 v -7.102545 q 0,-0.402981 0.119635,-0.654845 0.119635,-0.258159 0.371499,-0.371498 0.25816,-0.119635 0.654844,-0.119635 H 75.995 q 0.447057,0 0.661141,0.201491 0.22038,0.195194 0.22038,0.516319 0,0.327423 -0.22038,0.528913 -0.214084,0.195194 -0.661141,0.195194 z" />
      <path
         d="m 80.780402,20.25866 h -0.654845 v 2.965691 q 0,0.585582 -0.25816,0.862631 -0.258159,0.27705 -0.673734,0.27705 -0.447057,0 -0.692624,-0.289643 -0.245567,-0.289643 -0.245567,-0.850038 v -7.102545 q 0,-0.604472 0.270753,-0.875225 0.270754,-0.270753 0.875225,-0.270753 h 3.04125 q 0.629658,0 1.076715,0.05667 0.447057,0.05037 0.805963,0.214084 0.434464,0.182601 0.768183,0.522616 0.333718,0.340016 0.503726,0.79337 0.176304,0.447057 0.176304,0.950784 0,1.032639 -0.585582,1.649704 -0.579285,0.617065 -1.763043,0.875225 0.49743,0.264456 0.950784,0.780776 0.453354,0.51632 0.805963,1.101902 0.358905,0.579286 0.554099,1.051529 0.201491,0.465947 0.201491,0.642252 0,0.182601 -0.119636,0.365201 -0.113338,0.176305 -0.314829,0.27705 -0.20149,0.107042 -0.465947,0.107042 -0.314829,0 -0.528913,-0.151118 Q 84.293895,24.068094 84.13648,23.841417 83.985362,23.61474 83.720906,23.173979 L 82.971612,21.927255 Q 82.568631,21.240927 82.247505,20.882022 81.932676,20.523117 81.605254,20.390889 81.277832,20.25866 80.780402,20.25866 Z m 1.070419,-3.878694 h -1.725264 v 2.537522 h 1.674891 q 0.673734,0 1.133385,-0.113338 0.45965,-0.119635 0.698921,-0.396685 0.245566,-0.283346 0.245566,-0.774479 0,-0.384092 -0.195194,-0.673735 -0.195194,-0.295939 -0.541506,-0.44076 -0.327422,-0.138525 -1.290799,-0.138525 z"
         id="path44074"
         inkscape:original-d="m 80.780402,20.25866 h -0.654845 v 2.965691 q 0,0.585582 -0.25816,0.862631 -0.258159,0.27705 -0.673734,0.27705 -0.447057,0 -0.692624,-0.289643 -0.245567,-0.289643 -0.245567,-0.850038 v -7.102545 q 0,-0.604472 0.270753,-0.875225 0.270754,-0.270753 0.875225,-0.270753 h 3.04125 q 0.629658,0 1.076715,0.05667 0.447057,0.05037 0.805963,0.214084 0.434464,0.182601 0.768183,0.522616 0.333718,0.340016 0.503726,0.79337 0.176304,0.447057 0.176304,0.950784 0,1.032639 -0.585582,1.649704 -0.579285,0.617065 -1.763043,0.875225 0.49743,0.264456 0.950784,0.780776 0.453354,0.51632 0.805963,1.101902 0.358905,0.579286 0.554099,1.051529 0.201491,0.465947 0.201491,0.642252 0,0.182601 -0.119636,0.365201 -0.113338,0.176305 -0.314829,0.27705 -0.20149,0.107042 -0.465947,0.107042 -0.314829,0 -0.528913,-0.151118 -0.214083,-0.144821 -0.371498,-0.371498 -0.151118,-0.226677 -0.415574,-0.667438 L 82.971612,21.927255 Q 82.568631,21.240927 82.247505,20.882022 81.932676,20.523117 81.605254,20.390889 81.277832,20.25866 80.780402,20.25866 Z m 1.070419,-3.878694 h -1.725264 v 2.537522 h 1.674891 q 0.673734,0 1.133385,-0.113338 0.45965,-0.119635 0.698921,-0.396685 0.245566,-0.283346 0.245566,-0.774479 0,-0.384092 -0.195194,-0.673735 -0.195194,-0.295939 -0.541506,-0.44076 -0.327422,-0.138525 -1.290799,-0.138525 z" />
      <path
         d="m 93.625428,16.417745 h -4.212413 v 2.26677 h 3.878694 q 0.428168,0 0.635955,0.195194 0.214084,0.188897 0.214084,0.503727 0,0.314829 -0.207787,0.516319 -0.207788,0.195194 -0.642252,0.195194 h -3.878694 v 2.625675 h 4.357234 q 0.440761,0 0.661142,0.207787 0.226677,0.201491 0.226677,0.541506 0,0.327423 -0.226677,0.53521 -0.220381,0.20149 -0.661142,0.20149 h -5.081341 q -0.610769,0 -0.881522,-0.270753 -0.264456,-0.270753 -0.264456,-0.875225 v -6.938833 q 0,-0.402981 0.119635,-0.654845 0.119635,-0.258159 0.371498,-0.371498 0.25816,-0.119635 0.654845,-0.119635 h 4.93652 q 0.447057,0 0.661141,0.201491 0.220381,0.195194 0.220381,0.516319 0,0.327423 -0.220381,0.528913 -0.214084,0.195194 -0.661141,0.195194 z"
         id="path44076"
         inkscape:original-d="m 93.625428,16.417745 h -4.212413 v 2.26677 h 3.878694 q 0.428168,0 0.635955,0.195194 0.214084,0.188897 0.214084,0.503727 0,0.314829 -0.207787,0.516319 -0.207788,0.195194 -0.642252,0.195194 h -3.878694 v 2.625675 h 4.357234 q 0.440761,0 0.661142,0.207787 0.226677,0.201491 0.226677,0.541506 0,0.327423 -0.226677,0.53521 -0.220381,0.20149 -0.661142,0.20149 h -5.081341 q -0.610769,0 -0.881522,-0.270753 -0.264456,-0.270753 -0.264456,-0.875225 v -6.938833 q 0,-0.402981 0.119635,-0.654845 0.119635,-0.258159 0.371498,-0.371498 0.25816,-0.119635 0.654845,-0.119635 h 4.93652 q 0.447057,0 0.661141,0.201491 0.220381,0.195194 0.220381,0.516319 0,0.327423 -0.220381,0.528913 -0.214084,0.195194 -0.661141,0.195194 z" />
      <path
         d="m 96.156654,20.390889 v -4.439091 q 0,-0.566692 0.251864,-0.850038 0.25816,-0.283346 0.673734,-0.283346 0.434464,0 0.686327,0.283346 0.25816,0.283346 0.25816,0.850038 v 4.539836 q 0,0.77448 0.170008,1.297096 0.176304,0.51632 0.617065,0.805962 0.440761,0.283347 1.234128,0.283347 1.09561,0 1.54896,-0.579286 0.45336,-0.585582 0.45336,-1.76934 v -4.577615 q 0,-0.572989 0.25186,-0.850038 0.25186,-0.283346 0.67373,-0.283346 0.42187,0 0.68003,0.283346 0.26446,0.277049 0.26446,0.850038 v 4.439091 q 0,1.083012 -0.21408,1.807119 -0.20779,0.724107 -0.79337,1.271909 -0.50373,0.465947 -1.17117,0.680031 -0.66743,0.214084 -1.56155,0.214084 -1.064122,0 -1.832305,-0.226677 -0.768183,-0.232974 -1.25302,-0.711514 -0.484837,-0.484837 -0.711514,-1.23413 -0.226677,-0.75559 -0.226677,-1.800822 z"
         id="path44078"
         inkscape:original-d="m 96.156654,20.390889 v -4.439091 q 0,-0.566692 0.251864,-0.850038 0.25816,-0.283346 0.673734,-0.283346 0.434464,0 0.686327,0.283346 0.25816,0.283346 0.25816,0.850038 v 4.539836 q 0,0.77448 0.170008,1.297096 0.176304,0.51632 0.617065,0.805962 0.440761,0.283347 1.234128,0.283347 1.09561,0 1.54896,-0.579286 0.45336,-0.585582 0.45336,-1.76934 v -4.577615 q 0,-0.572989 0.25186,-0.850038 0.25186,-0.283346 0.67373,-0.283346 0.42187,0 0.68003,0.283346 0.26446,0.277049 0.26446,0.850038 v 4.439091 q 0,1.083012 -0.21408,1.807119 -0.20779,0.724107 -0.79337,1.271909 -0.50373,0.465947 -1.17117,0.680031 -0.66743,0.214084 -1.56155,0.214084 -1.064122,0 -1.832305,-0.226677 -0.768183,-0.232974 -1.25302,-0.711514 -0.484837,-0.484837 -0.711514,-1.23413 -0.226677,-0.75559 -0.226677,-1.800822 z" />
      <path
         d="m 107.10011,14.975828 h 2.43678 q 0.95079,0 1.63082,0.176304 0.68003,0.176305 1.23413,0.661141 1.44191,1.234131 1.44191,3.752763 0,0.831149 -0.14482,1.517477 -0.14482,0.686327 -0.44706,1.240426 -0.30223,0.547803 -0.77448,0.982267 -0.37149,0.333719 -0.81225,0.53521 -0.44076,0.20149 -0.95079,0.283346 -0.50372,0.08186 -1.13968,0.08186 h -2.43678 q -0.51002,0 -0.76818,-0.151118 -0.25816,-0.157414 -0.34002,-0.434464 -0.0756,-0.283346 -0.0756,-0.730403 v -6.768826 q 0,-0.604472 0.27075,-0.875225 0.27075,-0.270753 0.87522,-0.270753 z m 0.72411,1.479697 v 6.265099 h 1.41673 q 0.46595,0 0.73041,-0.02519 0.26445,-0.02519 0.5478,-0.125932 0.28334,-0.100745 0.49113,-0.283346 0.93819,-0.79337 0.93819,-2.732717 0,-1.366358 -0.41557,-2.046389 -0.40928,-0.680031 -1.01375,-0.862632 -0.60447,-0.188897 -1.46081,-0.188897 z"
         id="path44080"
         inkscape:original-d="m 107.10011,14.975828 h 2.43678 q 0.95079,0 1.63082,0.176304 0.68003,0.176305 1.23413,0.661141 1.44191,1.234131 1.44191,3.752763 0,0.831149 -0.14482,1.517477 -0.14482,0.686327 -0.44706,1.240426 -0.30223,0.547803 -0.77448,0.982267 -0.37149,0.333719 -0.81225,0.53521 -0.44076,0.20149 -0.95079,0.283346 -0.50372,0.08186 -1.13968,0.08186 h -2.43678 q -0.51002,0 -0.76818,-0.151118 -0.25816,-0.157414 -0.34002,-0.434464 -0.0756,-0.283346 -0.0756,-0.730403 v -6.768826 q 0,-0.604472 0.27075,-0.875225 0.27075,-0.270753 0.87522,-0.270753 z m 0.72411,1.479697 v 6.265099 h 1.41673 q 0.46595,0 0.73041,-0.02519 0.26445,-0.02519 0.5478,-0.125932 0.28334,-0.100745 0.49113,-0.283346 0.93819,-0.79337 0.93819,-2.732717 0,-1.366358 -0.41557,-2.046389 -0.40928,-0.680031 -1.01375,-0.862632 -0.60447,-0.188897 -1.46081,-0.188897 z" />
    </g>
  </g>
  <g
     inkscape:label="text"
     inkscape:groupmode="layer"
     id="layer1"
     transform="translate(-77.205961,-12.496111)" />
  <g
     inkscape:groupmode="layer"
     id="layer4"
     inkscape:label="F"
     style="display:inline"
     transform="translate(-73.349066,-13.818124)">
    <rect
       style="display:inline;fill:#000000;fill-opacity:1;stroke:#000000;stroke-width:0.336616;stroke-linecap:square;stroke-dasharray:none;stroke-opacity:1"
       id="rect238-5"
       width="37.970425"
       height="6.0692573"
       x="82.015442"
       y="25.718832"
       ry="3.0346286"
       inkscape:label="body"
       clip-path="url(#clipPath43947)"
       inkscape:path-effect="#path-effect43957"
       d="m 85.050071,25.718832 h 31.901169 c 1.68118,0 3.03463,1.353444 3.03463,3.034629 0,1.681184 -1.35345,3.034628 -3.03463,3.034628 H 85.050071 c -1.681185,0 -3.034629,-1.353444 -3.034629,-3.034628 0,-1.681185 1.353444,-3.034629 3.034629,-3.034629 z" />
    <g
       id="g44027"
       clip-path="url(#clipPath44029)">
      <g
         inkscape:label="Clip"
         id="g44025">
        <g
           id="g43831"
           clip-path="none">
          <g
             inkscape:label="Clip"
             id="g43829" />
        </g>
      </g>
    </g>
    <path
       style="display:inline;fill:#000000;fill-opacity:1;stroke:#000000;stroke-width:0;stroke-linecap:round;stroke-linejoin:round;stroke-dasharray:none;stroke-opacity:1"
       d="m 84.266112,28.341457 c 0,0 -5.67375,0.25146 -6.520783,-3.22151 -0.66219,-2.59821 -0.541,-3.30851 -0.985132,-5.16526 -0.242092,-1.0121 -0.482716,-4.42588 -3.318525,-3.61066 -0.754561,-1.26697 3.302146,-4.1097 4.914588,-0.8586 1.350536,3.09291 1.066149,6.86321 1.720667,9.942 0.706898,2.98363 4.18918,2.91407 4.18918,2.91407 z"
       id="path27931-9"
       sodipodi:nodetypes="ccsccccc" />
  </g>
</svg>
